<?xml version="1.0" encoding="UTF-8" standalone="no"?>
<!-- Created with Inkscape (http://www.inkscape.org/) -->

<svg
   width="15.345787mm"
   height="15.345779mm"
   viewBox="0 0 15.345787 15.345779"
   version="1.1"
   id="svg5"
   xml:space="preserve"
   sodipodi:docname="favicon.svg"
   inkscape:version="1.2.1 (9c6d41e410, 2022-07-14)"
   inkscape:export-filename="favicon.png"
   inkscape:export-xdpi="827.578"
   inkscape:export-ydpi="827.578"
   xmlns:inkscape="http://www.inkscape.org/namespaces/inkscape"
   xmlns:sodipodi="http://sodipodi.sourceforge.net/DTD/sodipodi-0.dtd"
   xmlns="http://www.w3.org/2000/svg"
   xmlns:svg="http://www.w3.org/2000/svg"><sodipodi:namedview
     id="namedview7"
     pagecolor="#ffffff"
     bordercolor="#000000"
     borderopacity="0.25"
     inkscape:showpageshadow="2"
     inkscape:pageopacity="0.0"
     inkscape:pagecheckerboard="0"
     inkscape:deskcolor="#d1d1d1"
     inkscape:document-units="mm"
     showgrid="false"
     showguides="true"
     inkscape:zoom="6.2502245"
     inkscape:cx="-15.119457"
     inkscape:cy="-4.4798391"
     inkscape:window-width="1858"
     inkscape:window-height="1057"
     inkscape:window-x="54"
     inkscape:window-y="-8"
     inkscape:window-maximized="1"
     inkscape:current-layer="layer1"><inkscape:grid
       type="xygrid"
       id="grid377" /><sodipodi:guide
       geometrie="21.612124,1.0702037"
       orientation="1,0"
       id="guide7662"
       inkscape:locked="false" /><sodipodi:guide
       geometrie="16.536464,0.13223368"
       orientation="0,-1"
       id="guide7664"
       inkscape:locked="false" /></sodipodi:namedview><defs
     id="defs2"><inkscape:path-effect
       effect="fillet_chamfer"
       id="path-effect403"
       is_visible="true"
       lpeversion="1"
       nodesatellites_param="F,0,0,1,0,0.79375,0,1 @ F,0,0,1,0,0.79375,0,1 @ F,0,0,1,0,0.79375,0,1 @ F,0,0,1,0,0.79375,0,1"
       unit="px"
       method="auto"
       mode="F"
       radius="3"
       chamfer_steps="1"
       flexible="false"
       use_knot_distance="true"
       apply_no_radius="true"
       apply_with_radius="true"
       only_selected="false"
       hide_knots="false" /></defs><g
     inkscape:label="Calque 1"
     inkscape:groupmode="layer"
     id="layer1"
     transform="translate(-102.19123,-140.71807)"><path
       id="path4556-2"
       style="fill:#313535;fill-opacity:1;stroke:#000000;stroke-width:0.323192;stroke-linejoin:round;stroke-dasharray:none;stroke-opacity:1"
       d="m 115.24631,146.28281 -9.72422,5.84592 v 3.77352 h 11.85332 v -9.61944 z"
       sodipodi:nodetypes="cccccc" /><path
       id="path2060-5-9-9"
       style="fill:#000000;fill-opacity:1;stroke:#000000;stroke-width:0.323192;stroke-linejoin:round;stroke-dasharray:none;stroke-opacity:1"
       d="m 115.47792,150.45532 a 3.9767121,3.9767121 0 0 0 -3.97678,3.97615 3.9767121,3.9767121 0 0 0 0.28279,1.47078 h 5.59148 v -4.96467 a 3.9767121,3.9767121 0 0 0 -1.89749,-0.48226 z" /><path
       style="fill:#d5a233;fill-opacity:1;stroke:#000000;stroke-width:0.323192;stroke-linejoin:round;stroke-dasharray:none;stroke-opacity:1"
       d="m 103.07777,140.91545 11.35246,1.41906 a 1.0205353,1.0205353 45 0 1 0.88607,0.88607 l 1.41906,11.35246 a 0.61736184,0.61736184 134.99998 0 1 -0.68917,0.68917 l -11.35246,-1.41905 a 1.0205344,1.0205344 44.999981 0 1 -0.88607,-0.88607 l -1.41906,-11.35247 a 0.61736141,0.61736141 135 0 1 0.68917,-0.68917 z"
       id="path379-2"
       inkscape:path-effect="#path-effect403"
       inkscape:original-d="m 102.29015,140.817 12.9277,1.61596 1.61596,12.9277 -12.9277,-1.61595 z" /><circle
       style="fill:#d9d9d9;fill-opacity:1;stroke:#000000;stroke-width:0.323192;stroke-linejoin:round;stroke-dasharray:none;stroke-opacity:1"
       id="path2060-5-7"
       cx="109.56198"
       cy="148.08882"
       r="3.976712" /><path
       style="fill:#1d1f1f;fill-opacity:1;stroke:#000000;stroke-width:0.323192;stroke-linejoin:round;stroke-dasharray:none;stroke-opacity:1"
       d="m 107.96922,148.1222 c 0,0.46878 -1.06041,0.92871 -0.84942,1.37744 0.14625,0.31112 1.35858,-0.19721 1.67469,-0.0155 0.40598,0.23438 0.27409,1.3827 0.76819,1.42434 0.34258,0.029 0.5085,-1.27518 0.82458,-1.45768 0.40599,-0.23438 1.33449,0.45396 1.6176,0.0469 0.19631,-0.28226 -0.85008,-1.07796 -0.85008,-1.44296 0,-0.46878 1.06038,-0.92872 0.84939,-1.37744 -0.14624,-0.31111 -1.35856,0.19723 -1.67467,0.0156 -0.40598,-0.23439 -0.2741,-1.38268 -0.7682,-1.42431 -0.34258,-0.029 -0.50851,1.27517 -0.82457,1.45768 -0.40599,0.23438 -1.33452,-0.45398 -1.6176,-0.047 -0.19631,0.28225 0.85005,1.07794 0.85009,1.44294 z"
       id="path2177-2-5-22-9-9"
       sodipodi:nodetypes="sssssssssssss" /></g></svg>
